<svg width="277" height="137" viewBox="0 0 277 137" fill="none" xmlns="http://www.w3.org/2000/svg">
<line x1="1.77443" y1="-1.77443" x2="20.849" y2="-1.77443" transform="matrix(-1 8.74228e-08 8.74228e-08 1 53.5936 83.3718)" stroke="#919191" stroke-width="3.54887" stroke-linecap="round" stroke-linejoin="round"/>
<line x1="1.77443" y1="-1.77443" x2="10.2443" y2="-1.77443" transform="matrix(-1 8.74228e-08 8.74228e-08 1 26.0212 83.3718)" stroke="#919191" stroke-width="3.54887" stroke-linecap="round" stroke-linejoin="round"/>
<line x1="1.77443" y1="-1.77443" x2="36.4026" y2="-1.77443" transform="matrix(-1 8.74228e-08 8.74228e-08 1 67.0262 92.5626)" stroke="#919191" stroke-width="3.54887" stroke-linecap="round" stroke-linejoin="round"/>
<line x1="1.77443" y1="-1.77443" x2="18.7281" y2="-1.77443" transform="matrix(-1 8.74228e-08 8.74228e-08 1 21.0724 92.5626)" stroke="#919191" stroke-width="3.54887" stroke-linecap="round" stroke-linejoin="round"/>
<line x1="1.77443" y1="-1.77443" x2="32.1607" y2="-1.77443" transform="matrix(-1 8.74228e-08 8.74228e-08 1 277 101.046)" stroke="#919191" stroke-width="3.54887" stroke-linecap="round" stroke-linejoin="round"/>
<line x1="1.77443" y1="-1.77443" x2="10.2443" y2="-1.77443" transform="matrix(-1 8.74228e-08 8.74228e-08 1 238.116 101.046)" stroke="#919191" stroke-width="3.54887" stroke-linecap="round" stroke-linejoin="round"/>
<line x1="1.77443" y1="-1.77443" x2="36.4026" y2="-1.77443" transform="matrix(-1 8.74228e-08 8.74228e-08 1 257.204 110.237)" stroke="#919191" stroke-width="3.54887" stroke-linecap="round" stroke-linejoin="round"/>
<line x1="60.1139" y1="49.0797" x2="50.4085" y2="58.7851" stroke="#E3F3FB" stroke-width="3.54887"/>
<line x1="59.222" y1="58.785" x2="49.5166" y2="49.0796" stroke="#E3F3FB" stroke-width="3.54887"/>
<line x1="232.109" y1="69.0729" x2="222.403" y2="78.7783" stroke="#E3F3FB" stroke-width="3.54887"/>
<line x1="230.821" y1="78.7783" x2="221.115" y2="69.0729" stroke="#E3F3FB" stroke-width="3.54887"/>
<g opacity="0.8">
<path d="M186.069 42.5324L90.0713 36.0532L103.2 86.9616H182.367L186.069 42.5324Z" fill="white"/>
<path d="M72.6821 19.0062C71.7021 19.0062 70.9076 19.8006 70.9076 20.7806C70.9076 21.7606 71.7021 22.5551 72.6821 22.5551V19.0062ZM86.1034 20.7806L87.8208 20.3344C87.6176 19.5523 86.9115 19.0062 86.1034 19.0062V20.7806ZM186.069 42.5324L187.837 42.6798C187.877 42.206 187.724 41.7361 187.415 41.3756C187.105 41.0151 186.663 40.794 186.188 40.762L186.069 42.5324ZM182.367 86.9616V88.736C183.289 88.736 184.058 88.0286 184.135 87.1089L182.367 86.9616ZM103.2 86.9616L101.482 87.4047L101.485 87.4156L103.2 86.9616ZM107.855 104.548L106.14 105.002C106.346 105.78 107.05 106.323 107.855 106.323V104.548ZM185.936 107.523L187.072 106.16L185.936 107.523ZM186.784 110.539C187.537 111.167 188.656 111.065 189.283 110.312C189.911 109.559 189.809 108.44 189.056 107.813L186.784 110.539ZM72.6821 22.5551H86.1034V19.0062H72.6821V22.5551ZM84.386 21.2268L88.3539 36.4994L91.7887 35.607L87.8208 20.3344L84.386 21.2268ZM89.9518 37.8236L185.95 44.3028L186.188 40.762L90.1908 34.2828L89.9518 37.8236ZM184.301 42.3851L180.598 86.8142L184.135 87.1089L187.837 42.6798L184.301 42.3851ZM88.3531 36.4963L101.482 87.4047L104.919 86.5185L91.7895 35.61L88.3531 36.4963ZM182.367 85.1871H103.2V88.736H182.367V85.1871ZM101.485 87.4156L106.14 105.002L109.571 104.094L104.916 86.5076L101.485 87.4156ZM107.855 106.323H177.72V102.774H107.855V106.323ZM184.8 108.886L186.784 110.539L189.056 107.813L187.072 106.16L184.8 108.886ZM177.72 106.323C180.307 106.323 182.813 107.23 184.8 108.886L187.072 106.16C184.447 103.972 181.137 102.774 177.72 102.774V106.323Z" fill="#222128"/>
</g>
<circle opacity="0.8" cx="174.499" cy="124.911" r="10.2585" fill="white" stroke="#43B1E6" stroke-width="3.54887"/>
<circle opacity="0.8" cx="118.037" cy="124.911" r="10.2585" fill="white" stroke="#43B1E6" stroke-width="3.54887"/>
<line x1="124.06" y1="74.5275" x2="158.099" y2="74.5275" stroke="#DADADA" stroke-width="3.54887" stroke-linecap="round" stroke-linejoin="round"/>
<line x1="119.43" y1="64.2763" x2="162.011" y2="64.2763" stroke="#DADADA" stroke-width="3.54887" stroke-linecap="round" stroke-linejoin="round"/>
<line x1="115.461" y1="54.0251" x2="166.586" y2="54.0251" stroke="#DADADA" stroke-width="3.54887" stroke-linecap="round" stroke-linejoin="round"/>
<path d="M139.318 3.48279L139.318 20.4504" stroke="#DADADA" stroke-width="5.3233" stroke-linecap="round"/>
<path d="M165.339 7.72461L159.113 23.5087" stroke="#DADADA" stroke-width="5.3233" stroke-linecap="round"/>
<path d="M113.687 7.72461L119.913 23.5087" stroke="#DADADA" stroke-width="5.3233" stroke-linecap="round"/>
</svg>
