<svg width="100" height="100" viewBox="0 0 100 100" fill="none" xmlns="http://www.w3.org/2000/svg">
<g clip-path="url(#clip0_1197_103999)">
<path d="M28.3048 69.9142C26.8213 69.9142 25.6185 68.7081 25.6185 67.2204V52.6144C25.6185 51.1266 26.8213 49.9205 28.3048 49.9205C29.7884 49.9205 30.9912 51.1266 30.9912 52.6144V67.2204C30.9912 68.7081 29.7884 69.9142 28.3048 69.9142Z" fill="#29D6D6"/>
<path d="M56.2077 82.6643H61.2304C62.4776 82.6643 63.4887 81.6503 63.4887 80.3995C63.4887 79.1488 62.4776 78.1348 61.2304 78.1348H56.2077C54.9605 78.1348 53.9493 79.1488 53.9493 80.3995C53.9493 81.6504 54.9605 82.6643 56.2077 82.6643Z" fill="#29D6D6"/>
<path d="M71.6954 69.9142C73.1789 69.9142 74.3817 68.7081 74.3817 67.2204V52.6144C74.3817 51.1266 73.1789 49.9205 71.6954 49.9205C70.2118 49.9205 69.009 51.1266 69.009 52.6144V67.2204C69.009 68.7081 70.2118 69.9142 71.6954 69.9142Z" fill="#29D6D6"/>
<path d="M79.1308 51.0843V45.7633C79.1308 29.6244 66.0376 16.4942 49.9439 16.4942C33.8501 16.4942 20.7569 29.6243 20.7569 45.7633V51.0988C17.5021 51.5941 15 54.419 15 57.8189V62.0157C15 65.7638 18.0408 68.8132 21.7784 68.8132H24.949C25.5455 70.0718 26.8251 70.9443 28.3048 70.9443C30.3523 70.9443 32.0181 69.2738 32.0181 67.2205V52.6143C32.0181 50.561 30.3523 48.8906 28.3048 48.8906C27.7084 48.8906 27.145 49.0331 26.6452 49.2846V45.7632C26.6452 32.8802 37.097 22.399 49.9439 22.399C62.7907 22.399 73.2425 32.8801 73.2425 45.7632V49.2302C72.771 49.0125 72.2472 48.8902 71.6951 48.8902C70.7038 48.8902 69.7714 49.2777 69.0697 49.9813C68.3679 50.685 67.9815 51.6202 67.9815 52.6144V67.22C67.9815 69.2735 69.6475 70.9442 71.6952 70.9442C73.1748 70.9442 74.4548 70.0716 75.0513 68.8129H77.1892V74.3882C77.1892 77.1347 74.9605 79.3691 72.2211 79.3691H64.3503C63.9178 78.0557 62.6831 77.1049 61.2304 77.1049H56.2078C54.3963 77.1049 52.9224 78.5829 52.9224 80.3996C52.9224 82.2162 54.3963 83.6942 56.2078 83.6942H61.2303C62.6835 83.6942 63.9184 82.7429 64.3506 81.4289H72.2211C76.0931 81.4289 79.2433 78.2705 79.2433 74.3882V68.7357C82.498 68.2403 85.0001 65.4154 85.0001 62.0155V57.8188C85 54.3801 82.4398 51.5315 79.1308 51.0843ZM61.2303 81.6344H56.2077C55.5287 81.6344 54.9763 81.0804 54.9763 80.3996C54.9763 79.7187 55.5287 79.1648 56.2077 79.1648H61.2303C61.9092 79.1648 62.4616 79.7187 62.4616 80.3996C62.4616 81.0804 61.9092 81.6344 61.2303 81.6344ZM17.0541 62.0155V57.8188C17.0541 55.2065 19.1735 53.0812 21.7784 53.0812H24.5914V66.7532H21.7784C19.1735 66.7532 17.0541 64.628 17.0541 62.0155ZM26.6455 52.6143C26.6455 51.6968 27.3899 50.9504 28.3048 50.9504C29.2196 50.9504 29.964 51.6969 29.964 52.6143V67.2202C29.964 68.1378 29.2196 68.8842 28.3048 68.8842C27.3897 68.8842 26.6455 68.1377 26.6455 67.2202V52.6143ZM49.9439 20.3393C35.9644 20.3393 24.5911 31.7445 24.5911 45.7633V51.0214H22.8109V45.7633C22.8109 30.7601 34.9827 18.5541 49.9439 18.5541C64.905 18.5541 77.0768 30.7601 77.0768 45.7633V51.0214H75.2966V45.7633C75.2966 31.7445 63.9234 20.3393 49.9439 20.3393ZM82.9459 62.0155C82.9459 64.6278 80.8265 66.7532 78.2216 66.7532H75.4089V56.2639C75.4089 55.6949 74.949 54.7557 74.3818 54.7557C73.8146 54.7557 73.3548 56.3057 73.3548 56.8746V67.22C73.3548 68.1377 72.6103 68.8843 71.6951 68.8843C70.7799 68.8843 70.0354 68.1376 70.0354 67.22V52.6144C70.0354 52.1704 70.2082 51.7527 70.5219 51.4381C70.8358 51.1233 71.2522 50.95 71.695 50.95C72.6101 50.95 73.3546 51.6968 73.3546 52.6144V56.8575C73.3546 57.4265 73.8145 57.8875 74.3817 57.8875C74.9489 57.8875 75.4087 57.4265 75.4087 56.8575V53.0812H78.2214C80.8264 53.0812 82.9458 55.2065 82.9458 57.8188V62.0155H82.9459Z" fill="#441B98"/>
<path d="M56.7795 71.553C56.9246 71.553 57.071 71.5381 57.2165 71.5074C57.977 71.3471 58.589 70.7838 58.8138 70.0362L60.5273 64.3138C60.5356 64.2864 60.5628 64.2662 60.5923 64.2662H62.534C63.7044 64.2662 64.6566 63.3114 64.6566 62.1377V41.1602C64.6566 39.9865 63.7044 39.0316 62.534 39.0316H37.3539C36.1835 39.0316 35.2313 39.9865 35.2313 41.1602V48.577C35.2313 49.1459 35.6912 49.6069 36.2584 49.6069C36.8256 49.6069 37.2854 49.1459 37.2854 48.577V41.1602C37.2854 41.1224 37.3161 41.0915 37.3539 41.0915H62.534C62.5718 41.0915 62.6025 41.1224 62.6025 41.1602V62.1377C62.6025 62.1754 62.5718 62.2063 62.534 62.2063H60.5923C59.6615 62.2063 58.8256 62.8305 58.5597 63.7228L56.8469 69.4426C56.8417 69.4596 56.8348 69.4828 56.7941 69.4913C56.7543 69.4996 56.7392 69.482 56.7281 69.4691L51.1748 62.9495C50.7701 62.4771 50.1828 62.2062 49.5631 62.2062H37.3537C37.3159 62.2062 37.2853 62.1753 37.2853 62.1375V47.5579C37.2853 46.9889 36.8256 47.5579 36.2584 47.5579C35.6912 47.5579 35.2312 47.4688 35.2312 48.0377V62.1375C35.2312 63.3112 36.1833 64.266 37.3537 64.266H49.5631C49.5829 64.266 49.6028 64.2755 49.6148 64.2895L55.1664 70.807C55.5744 71.286 56.1661 71.553 56.7795 71.553Z" fill="#441B98"/>
<path fill-rule="evenodd" clip-rule="evenodd" d="M50 49.8846C50.8284 49.8846 51.5 50.5562 51.5 51.3846V56.9846C51.5 57.8131 50.8284 58.4846 50 58.4846C49.1716 58.4846 48.5 57.8131 48.5 56.9846V51.3846C48.5 50.5562 49.1716 49.8846 50 49.8846Z" fill="#441B98"/>
<path fill-rule="evenodd" clip-rule="evenodd" d="M50 44.5C50.8284 44.5 51.5 45.1716 51.5 46L51.5 46.9333C51.5 47.7618 50.8284 48.4333 50 48.4333C49.1716 48.4333 48.5 47.7618 48.5 46.9333L48.5 46C48.5 45.1716 49.1716 44.5 50 44.5Z" fill="#441B98"/>
</g>
<defs>
<clipPath id="clip0_1197_103999">
<rect width="70" height="70" fill="white" transform="translate(15 15)"/>
</clipPath>
</defs>
</svg>
