<svg width="100" height="100" viewBox="0 0 100 100" fill="none" xmlns="http://www.w3.org/2000/svg">
<path d="M43.884 50.7309C43.6065 50.4565 43.2318 50.3031 42.8416 50.3042C42.4514 50.3053 42.0775 50.4608 41.8016 50.7367C41.5257 51.0126 41.3702 51.3865 41.3691 51.7767C41.3681 52.1668 41.5215 52.5416 41.7959 52.819L45.4884 56.5115C45.6254 56.6488 45.7881 56.7577 45.9673 56.832C46.1464 56.9063 46.3385 56.9445 46.5324 56.9445C46.7264 56.9445 46.9184 56.9063 47.0976 56.832C47.2767 56.7577 47.4395 56.6488 47.5765 56.5115L57.177 46.911C57.3154 46.7742 57.4253 46.6113 57.5005 46.4319C57.5758 46.2524 57.6148 46.0598 57.6153 45.8652C57.6158 45.6707 57.5779 45.4779 57.5037 45.298C57.4295 45.1181 57.3204 44.9547 57.1828 44.8171C57.0452 44.6795 56.8818 44.5704 56.7019 44.4962C56.522 44.422 56.3293 44.3841 56.1347 44.3846C55.9401 44.3852 55.7475 44.4242 55.568 44.4994C55.3886 44.5746 55.2257 44.6845 55.0889 44.8229L46.5324 53.3784L43.884 50.7309Z" fill="#441B98"/>
<path d="M77.4871 41.7377C76.4918 38.6692 77.696 34.4498 75.8371 31.8962C73.9609 29.3161 69.5631 29.1684 66.983 27.2909C64.4295 25.432 62.9391 21.2843 59.8707 20.289C56.91 19.327 53.2813 21.7754 49.9999 21.7754C46.7186 21.7754 43.0899 19.327 40.1292 20.289C37.0607 21.2843 35.5704 25.432 33.0169 27.2909C30.4368 29.1684 26.039 29.3161 24.1628 31.8962C22.3039 34.4498 23.5081 38.6692 22.5128 41.7377C21.5507 44.6984 18.0645 47.3876 18.0645 50.669C18.0645 53.9504 21.5507 56.6396 22.5128 59.6003C23.5081 62.6687 22.3039 66.8882 24.1628 69.4417C26.039 72.0218 30.4368 72.1695 33.0169 74.0471C35.5704 75.906 37.0607 80.0536 40.1292 81.0489C43.0899 82.011 46.7186 79.5626 49.9999 79.5626C53.2813 79.5626 56.91 82.011 59.8707 81.0489C62.9391 80.0536 64.4295 75.906 66.983 74.0471C69.5631 72.1695 73.9609 72.0218 75.8371 69.4417C77.696 66.8882 76.4918 62.6687 77.4871 59.6003C78.4491 56.6396 81.9354 53.9504 81.9354 50.669C81.9354 47.3876 78.4491 44.6984 77.4871 41.7377ZM49.9999 74.0883C45.368 74.0883 40.8401 72.7148 36.9888 70.1415C33.1375 67.5681 30.1358 63.9105 28.3633 59.6312C26.5907 55.3519 26.1269 50.643 27.0306 46.1001C27.9342 41.5572 30.1647 37.3843 33.44 34.109C36.7152 30.8337 40.8881 28.6033 45.431 27.6996C49.974 26.796 54.6828 27.2598 58.9621 29.0323C63.2415 30.8049 66.8991 33.8066 69.4724 37.6579C72.0458 41.5092 73.4193 46.0371 73.4193 50.669C73.4193 56.8802 70.9519 62.837 66.5599 67.229C62.1679 71.621 56.2111 74.0883 49.9999 74.0883Z" fill="#29D6D6"/>
<path d="M50.0002 26.1852C36.4995 26.1852 25.5164 37.1684 25.5164 50.6691C25.5164 64.1698 36.4995 75.153 50.0002 75.153C63.501 75.153 74.4841 64.1698 74.4841 50.6691C74.4841 37.1684 63.501 26.1852 50.0002 26.1852ZM50.0002 73.0239C37.6731 73.0239 27.6454 62.9962 27.6454 50.6691C27.6454 38.342 37.6731 28.3142 50.0002 28.3142C62.3273 28.3142 72.3551 38.342 72.3551 50.6691C72.3551 62.9962 62.3273 73.0239 50.0002 73.0239Z" fill="#441B98"/>
<path d="M80.4026 44.6945C79.6015 43.5514 78.8457 42.4723 78.4998 41.4091C78.1325 40.2754 78.1032 38.9128 78.0713 37.4691C78.0247 35.2855 77.9768 33.026 76.6981 31.2696C75.406 29.4945 73.2623 28.7507 71.1879 28.0321C69.8346 27.5624 68.5558 27.118 67.6098 26.43C66.681 25.7541 65.8759 24.6856 65.023 23.5532C63.6937 21.7887 62.3178 19.9644 60.1994 19.2765C58.1715 18.6178 56.0292 19.2632 53.9573 19.8886C52.5535 20.3104 51.2282 20.7109 50 20.7109C48.7718 20.7109 47.4465 20.3104 46.0427 19.8886C43.9708 19.2632 41.8285 18.6178 39.8006 19.2765C37.6822 19.9644 36.3063 21.7887 34.977 23.5545C34.1241 24.6856 33.319 25.7541 32.3902 26.43C31.4442 27.1193 30.1654 27.5624 28.8121 28.0321C26.7377 28.7507 24.594 29.4945 23.3019 31.2696C22.0232 33.026 21.9753 35.2855 21.9287 37.4691C21.8968 38.9128 21.8675 40.2754 21.5002 41.4091C21.1543 42.4723 20.3985 43.5514 19.5974 44.6945C18.32 46.5148 17 48.399 17 50.6691C17 52.9391 18.32 54.8233 19.5974 56.6437C20.3985 57.7867 21.1543 58.8658 21.5002 59.929C21.8675 61.0627 21.8968 62.4253 21.9287 63.8691C21.9753 66.0526 22.0232 68.3121 23.3019 70.0685C24.594 71.8436 26.7377 72.5874 28.8121 73.306C30.1654 73.7757 31.4442 74.2201 32.3902 74.9081C33.319 75.5841 34.1241 76.6526 34.977 77.7849C36.3063 79.5494 37.6822 81.3737 39.8006 82.0616C41.8285 82.7203 43.9708 82.0749 46.0427 81.4495C47.4465 81.0277 48.7718 80.6272 50 80.6272C51.2282 80.6272 52.5535 81.0277 53.9573 81.4495C55.4131 81.8887 56.9034 82.3384 58.3644 82.3384C58.9869 82.3435 59.6062 82.2501 60.1994 82.0616C62.3178 81.3737 63.6937 79.5494 65.023 77.7836C65.8759 76.6526 66.681 75.5841 67.6098 74.9081C68.5558 74.2188 69.8346 73.7757 71.1879 73.306C73.2623 72.5874 75.406 71.8436 76.6981 70.0685C77.9768 68.3121 78.0247 66.0526 78.0713 63.8691C78.1032 62.4253 78.1325 61.0627 78.4998 59.929C78.8457 58.8658 79.6015 57.7867 80.4026 56.6437C81.68 54.8233 83 52.9391 83 50.6691C83 48.399 81.68 46.5148 80.4026 44.6945V44.6945ZM78.6594 55.4221C77.8038 56.6423 76.919 57.9051 76.4745 59.2717C76.0101 60.7035 75.9769 62.2896 75.9436 63.8225C75.9023 65.7652 75.8624 67.5989 74.9775 68.8151C74.078 70.0512 72.3349 70.6553 70.4906 71.2954C69.0495 71.7944 67.5592 72.312 66.3563 73.1862C65.172 74.0485 64.2326 75.2966 63.3224 76.5035C62.1395 78.0737 61.0217 79.556 59.5421 80.0364C58.1475 80.4888 56.411 79.9659 54.5721 79.411C53.0818 78.9626 51.5422 78.4982 50 78.4982C48.4578 78.4982 46.9182 78.9626 45.4279 79.411C43.589 79.9659 41.8511 80.4888 40.4579 80.0364C38.9783 79.556 37.8605 78.0737 36.6776 76.5035C35.7674 75.2966 34.828 74.0485 33.6437 73.1876C32.4408 72.312 30.9505 71.7944 29.5094 71.2954C27.6651 70.6553 25.922 70.0512 25.0225 68.8151C24.1376 67.5989 24.0977 65.7652 24.0564 63.8225C24.0245 62.2896 23.9899 60.7035 23.5255 59.2717C23.081 57.9051 22.1962 56.6423 21.3406 55.4221C20.2029 53.8001 19.129 52.2672 19.129 50.6691C19.129 49.071 20.2029 47.5381 21.3406 45.916C22.1962 44.6958 23.081 43.433 23.5255 42.0664C23.9899 40.6347 24.0231 39.0485 24.0564 37.5156C24.0977 35.5729 24.1376 33.7393 25.0225 32.5231C25.922 31.2869 27.6651 30.6828 29.5094 30.0427C30.9505 29.5437 32.4408 29.0261 33.6437 28.1519C34.828 27.2896 35.7674 26.0415 36.6776 24.8346C37.8605 23.2644 38.9783 21.7821 40.4579 21.3017C40.8402 21.182 41.239 21.1236 41.6396 21.1287C42.7839 21.1287 44.0786 21.5199 45.4279 21.9271C46.9182 22.3756 48.4578 22.8399 50 22.8399C51.5422 22.8399 53.0818 22.3756 54.5721 21.9271C56.411 21.3722 58.1475 20.848 59.5421 21.3017C61.0217 21.7821 62.1395 23.2644 63.3224 24.8346C64.2326 26.0415 65.172 27.2896 66.3563 28.1506C67.5592 29.0261 69.0495 29.5437 70.4906 30.0427C72.3349 30.6828 74.078 31.2869 74.9775 32.5231C75.8624 33.7393 75.9023 35.5729 75.9436 37.5156C75.9755 39.0485 76.0101 40.6347 76.4745 42.0664C76.919 43.433 77.8038 44.6958 78.6594 45.916C79.7971 47.5381 80.871 49.071 80.871 50.6691C80.871 52.2672 79.7971 53.8001 78.6594 55.4221V55.4221Z" fill="#441B98"/>
</svg>
