<?xml version="1.0" encoding="UTF-8"?>
<!DOCTYPE svg PUBLIC "-//W3C//DTD SVG 1.1//EN" "http://www.w3.org/Graphics/SVG/1.1/DTD/svg11.dtd">
<svg xmlns="http://www.w3.org/2000/svg" version="1.1" width="2000px" height="2000px" style="shape-rendering:geometricPrecision; text-rendering:geometricPrecision; image-rendering:optimizeQuality; fill-rule:evenodd; clip-rule:evenodd" xmlns:xlink="http://www.w3.org/1999/xlink">
<g><path style="opacity:0.995" fill="#4f668f" d="M 555.5,522.5 C 566.043,561.886 576.709,601.22 587.5,640.5C 594.541,667.337 601.874,694.004 609.5,720.5C 650.85,877.231 692.516,1033.9 734.5,1190.5C 1017.17,1190.5 1299.83,1190.5 1582.5,1190.5C 1624.93,1190.76 1649.76,1211.76 1657,1253.5C 1658.19,1284.96 1645.03,1308.12 1617.5,1323C 1609.82,1326.25 1601.82,1328.25 1593.5,1329C 1532.17,1329.5 1470.83,1329.67 1409.5,1329.5C 1395.5,1328.17 1381.5,1328.17 1367.5,1329.5C 1206.83,1329.5 1046.17,1329.5 885.5,1329.5C 871.5,1328.17 857.5,1328.17 843.5,1329.5C 785.141,1329.97 726.808,1329.47 668.5,1328C 638.679,1320.85 620.179,1302.35 613,1272.5C 551.136,1040.41 488.969,808.409 426.5,576.5C 360.809,575.975 295.142,575.142 229.5,574C 201,566.833 183.167,549 176,520.5C 170.83,481.994 185.996,455.16 221.5,440C 226.1,438.683 230.766,437.683 235.5,437C 319.5,436.333 403.5,436.333 487.5,437C 508.814,439.901 525.647,450.067 538,467.5C 546.147,485.083 551.98,503.417 555.5,522.5 Z"/></g>
<g><path style="opacity:0.995" fill="#fadd61" d="M 555.5,522.5 C 961.167,522.333 1366.83,522.5 1772.5,523C 1804.82,529.153 1822.15,548.653 1824.5,581.5C 1822.55,610.919 1807.55,630.086 1779.5,639C 1769.55,640.331 1759.55,640.831 1749.5,640.5C 1362.17,640.5 974.833,640.5 587.5,640.5C 576.709,601.22 566.043,561.886 555.5,522.5 Z"/></g>
<g><path style="opacity:1" fill="#f0585a" d="M 587.5,640.5 C 974.833,640.5 1362.17,640.5 1749.5,640.5C 1741.15,667.25 1732.82,693.917 1724.5,720.5C 1352.83,720.5 981.167,720.5 609.5,720.5C 601.874,694.004 594.541,667.337 587.5,640.5 Z"/></g>
<g><path style="opacity:0.999" fill="#f1727e" d="M 609.5,720.5 C 981.167,720.5 1352.83,720.5 1724.5,720.5C 1676.96,877.107 1629.63,1033.77 1582.5,1190.5C 1299.83,1190.5 1017.17,1190.5 734.5,1190.5C 692.516,1033.9 650.85,877.231 609.5,720.5 Z"/></g>
<g><path style="opacity:1" fill="#3a494b" d="M 992.5,874.5 C 1006.61,872.461 1015.78,878.128 1020,891.5C 1020.67,909.833 1020.67,928.167 1020,946.5C 1012.99,961.725 1001.83,965.892 986.5,959C 982.072,955.908 979.239,951.741 978,946.5C 977.333,927.167 977.333,907.833 978,888.5C 980.774,881.557 985.607,876.89 992.5,874.5 Z"/></g>
<g><path style="opacity:1" fill="#3b494b" d="M 1291.5,874.5 C 1305.95,872.154 1315.45,877.821 1320,891.5C 1320.67,909.167 1320.67,926.833 1320,944.5C 1313.84,960.997 1302.67,965.83 1286.5,959C 1281.81,955.635 1278.65,951.135 1277,945.5C 1276.33,927.167 1276.33,908.833 1277,890.5C 1279.6,883.07 1284.43,877.737 1291.5,874.5 Z"/></g>
<g><path style="opacity:1" fill="#3f4a4c" d="M 1080.5,997.5 C 1082.53,997.338 1084.53,997.505 1086.5,998C 1114.05,1021.87 1145.05,1027.54 1179.5,1015C 1190.6,1010.62 1200.94,1004.95 1210.5,998C 1216.97,996.8 1218.63,998.967 1215.5,1004.5C 1189.66,1024.04 1160.66,1031.88 1128.5,1028C 1110.63,1024.4 1094.97,1016.57 1081.5,1004.5C 1079.25,1002.43 1078.92,1000.1 1080.5,997.5 Z"/></g>
<g><path style="opacity:0.991" fill="#b2b3b3" d="M 885.5,1329.5 C 939.358,1342.2 971.192,1375.86 981,1430.5C 984.948,1489.47 960.115,1530.97 906.5,1555C 853.346,1571.67 808.513,1559.17 772,1517.5C 742.866,1475.73 739.866,1432.06 763,1386.5C 781.696,1355.96 808.53,1336.96 843.5,1329.5C 857.5,1328.17 871.5,1328.17 885.5,1329.5 Z"/></g>
<g><path style="opacity:0.991" fill="#b2b3b3" d="M 1409.5,1329.5 C 1455.28,1340.11 1485.78,1367.78 1501,1412.5C 1513.92,1470.79 1495.42,1515.95 1445.5,1548C 1398.4,1570.9 1354.07,1566.57 1312.5,1535C 1277.31,1502.41 1264.81,1462.58 1275,1415.5C 1286.17,1378 1309.67,1351.5 1345.5,1336C 1352.87,1333.5 1360.2,1331.33 1367.5,1329.5C 1381.5,1328.17 1395.5,1328.17 1409.5,1329.5 Z"/></g>
<g><path style="opacity:1" fill="#4f6690" d="M 854.5,1401.5 C 881.059,1398.68 898.893,1409.68 908,1434.5C 911.668,1460.34 901.501,1478.17 877.5,1488C 849.8,1493.41 831.3,1482.91 822,1456.5C 817.433,1428.96 828.266,1410.62 854.5,1401.5 Z"/></g>
<g><path style="opacity:1" fill="#4f6690" d="M 1379.5,1401.5 C 1406.1,1398.96 1423.6,1410.29 1432,1435.5C 1435.07,1463.89 1422.9,1481.72 1395.5,1489C 1376.74,1491.37 1361.91,1484.87 1351,1469.5C 1338.3,1444.46 1343.14,1423.63 1365.5,1407C 1370.17,1404.82 1374.83,1402.99 1379.5,1401.5 Z"/></g>
</svg>
