<?xml version="1.0" encoding="UTF-8"?>
<!DOCTYPE svg PUBLIC "-//W3C//DTD SVG 1.1//EN" "http://www.w3.org/Graphics/SVG/1.1/DTD/svg11.dtd">
<svg xmlns="http://www.w3.org/2000/svg" version="1.1" width="250px" height="150px" style="shape-rendering:geometricPrecision; text-rendering:geometricPrecision; image-rendering:optimizeQuality; fill-rule:evenodd; clip-rule:evenodd" xmlns:xlink="http://www.w3.org/1999/xlink">
<g><path style="opacity:1" fill="#56adff" d="M 62.5,1.5 C 63.209,2.40397 64.209,2.73731 65.5,2.5C 65.2491,7.50678 64.9157,12.5068 64.5,17.5C 61.1933,16.9492 57.8599,16.6159 54.5,16.5C 50.5075,16.2447 47.6742,17.9114 46,21.5C 45.3333,25.1667 45.3333,28.8333 46,32.5C 48.2491,39.9108 50.0824,47.4108 51.5,55C 51.2054,62.4375 47.8721,67.9375 41.5,71.5C 40.4324,72.4345 39.099,72.7678 37.5,72.5C 35.1667,72.5 32.8333,72.5 30.5,72.5C 30.2852,74.1788 30.9519,75.1788 32.5,75.5C 33.8333,75.5 35.1667,75.5 36.5,75.5C 49.6657,79.494 54.1657,88.1607 50,101.5C 45.9818,109.403 44.6484,117.736 46,126.5C 47.605,130.276 50.4384,132.276 54.5,132.5C 57.8599,132.384 61.1933,132.051 64.5,131.5C 65.254,136.463 65.5874,141.463 65.5,146.5C 64.209,146.263 63.209,146.596 62.5,147.5C 56.8236,147.666 51.1569,147.499 45.5,147C 42.3156,146.246 39.6489,144.746 37.5,142.5C 31.081,135.405 28.581,127.071 30,117.5C 32.5444,109.489 34.3778,101.323 35.5,93C 35.9706,88.758 34.3039,85.9247 30.5,84.5C 25.4143,82.251 20.0809,81.251 14.5,81.5C 14.5,76.8333 14.5,72.1667 14.5,67.5C 18.9418,66.8789 23.2752,65.8789 27.5,64.5C 33.4619,63.028 36.1285,59.1946 35.5,53C 34.4897,45.3016 32.6563,37.8016 30,30.5C 27.9324,19.8653 31.0991,11.1987 39.5,4.5C 40.842,3.20695 42.5087,2.37362 44.5,2C 50.4908,1.50051 56.4908,1.33385 62.5,1.5 Z"/></g>
<g><path style="opacity:0.999" fill="#54adff" d="M 181.5,1.5 C 186.5,1.5 191.5,1.5 196.5,1.5C 210.785,5.31137 216.951,14.6447 215,29.5C 213.176,35.795 211.51,42.1284 210,48.5C 207.546,57.4268 210.712,63.2601 219.5,66C 222.393,67.1488 225.393,67.6488 228.5,67.5C 229.167,67.5 229.833,67.5 230.5,67.5C 230.5,71.8333 230.5,76.1667 230.5,80.5C 224.074,80.2522 218.074,81.7522 212.5,85C 209.64,88.6814 208.807,92.8481 210,97.5C 211.667,104.167 213.333,110.833 215,117.5C 217.103,132.311 211.27,142.311 197.5,147.5C 191.31,147.823 185.31,147.49 179.5,146.5C 179.613,141.482 179.947,136.482 180.5,131.5C 183.833,131.833 187.167,132.167 190.5,132.5C 193.421,132.854 195.754,131.854 197.5,129.5C 199.1,126.699 200.1,123.699 200.5,120.5C 198.491,112.13 196.324,103.797 194,95.5C 192.804,86.5568 196.304,80.2235 204.5,76.5C 206.948,75.5269 209.615,75.1936 212.5,75.5C 214.048,75.1788 214.715,74.1788 214.5,72.5C 210.821,72.2756 207.154,71.9422 203.5,71.5C 197.128,67.9375 193.795,62.4375 193.5,55C 194.47,47.6195 196.304,40.4528 199,33.5C 199.667,29.5 199.667,25.5 199,21.5C 197.005,18.3249 194.172,16.6583 190.5,16.5C 187.167,16.8333 183.833,17.1667 180.5,17.5C 180.538,13.6375 180.205,9.80416 179.5,6C 179.759,4.21343 180.425,2.71343 181.5,1.5 Z"/></g>
<g><path style="opacity:0.475" fill="#500dff" d="M 62.5,1.5 C 65.0558,1.1322 67.0558,1.96553 68.5,4C 67.7929,7.82199 67.1262,11.6553 66.5,15.5C 66.2528,16.7133 65.5862,17.38 64.5,17.5C 64.9157,12.5068 65.2491,7.50678 65.5,2.5C 64.209,2.73731 63.209,2.40397 62.5,1.5 Z"/></g>
<g><path style="opacity:0.476" fill="#f7afff" d="M 181.5,1.5 C 180.425,2.71343 179.759,4.21343 179.5,6C 180.205,9.80416 180.538,13.6375 180.5,17.5C 179.069,17.1193 178.236,16.1193 178,14.5C 177.663,11.1392 177.163,7.80584 176.5,4.5C 177.362,2.23295 179.029,1.23295 181.5,1.5 Z"/></g>
<g><path style="opacity:0.488" fill="#501aff" d="M 196.5,1.5 C 213.119,4.03222 219.953,13.6989 217,30.5C 215.333,37.1667 213.667,43.8333 212,50.5C 210.534,55.7348 212.034,59.9015 216.5,63C 220.503,64.8494 224.503,66.3494 228.5,67.5C 225.393,67.6488 222.393,67.1488 219.5,66C 210.712,63.2601 207.546,57.4268 210,48.5C 211.51,42.1284 213.176,35.795 215,29.5C 216.951,14.6447 210.785,5.31137 196.5,1.5 Z"/></g>
<g><path style="opacity:0.491" fill="#5013ff" d="M 54.5,16.5 C 49.4411,18.2594 47.1077,21.9261 47.5,27.5C 49.0218,34.9011 50.8551,42.2344 53,49.5C 55.0323,57.734 52.8657,64.5673 46.5,70C 44.9751,71.0086 43.3084,71.5086 41.5,71.5C 47.8721,67.9375 51.2054,62.4375 51.5,55C 50.0824,47.4108 48.2491,39.9108 46,32.5C 45.3333,28.8333 45.3333,25.1667 46,21.5C 47.6742,17.9114 50.5075,16.2447 54.5,16.5 Z"/></g>
<g><path style="opacity:0.486" fill="#faafff" d="M 190.5,16.5 C 194.172,16.6583 197.005,18.3249 199,21.5C 199.667,25.5 199.667,29.5 199,33.5C 196.304,40.4528 194.47,47.6195 193.5,55C 193.795,62.4375 197.128,67.9375 203.5,71.5C 197.591,70.0923 193.757,66.4256 192,60.5C 191.333,56.8333 191.333,53.1667 192,49.5C 194.225,42.0988 196.059,34.5988 197.5,27C 197.249,21.9704 194.916,18.4704 190.5,16.5 Z"/></g>
<g><path style="opacity:0.274" fill="#016eff" d="M 56.5,23.5 C 65.6774,59.2098 75.0107,94.8764 84.5,130.5C 81.6118,130.78 80.1118,129.447 80,126.5C 71.0061,92.1904 62.1727,57.8571 53.5,23.5C 54.5,23.5 55.5,23.5 56.5,23.5 Z"/></g>
<g><path style="opacity:1" fill="#0989ff" d="M 56.5,23.5 C 64.1667,23.5 71.8333,23.5 79.5,23.5C 84.0309,44.7089 89.1976,65.7089 95,86.5C 95.4828,85.552 95.6495,84.552 95.5,83.5C 100.024,63.5619 104.691,43.5619 109.5,23.5C 116.833,23.5 124.167,23.5 131.5,23.5C 136.677,44.5403 142.01,65.5403 147.5,86.5C 148.386,85.675 148.719,84.675 148.5,83.5C 152.769,63.5026 157.436,43.5026 162.5,23.5C 169.5,23.5 176.5,23.5 183.5,23.5C 175.649,59.3811 166.983,95.0478 157.5,130.5C 150.5,130.5 143.5,130.5 136.5,130.5C 131.154,109.125 126.154,87.7916 121.5,66.5C 121.688,64.8967 121.188,63.5634 120,62.5C 115.149,85.2951 109.982,107.962 104.5,130.5C 97.8333,130.5 91.1667,130.5 84.5,130.5C 75.0107,94.8764 65.6774,59.2098 56.5,23.5 Z"/></g>
<g><path style="opacity:0.572" fill="#f911fe" d="M 79.5,23.5 C 80.8333,23.5 82.1667,23.5 83.5,23.5C 86.6607,39.6399 90.3273,55.6399 94.5,71.5C 95.1621,75.4659 95.4955,79.4659 95.5,83.5C 95.6495,84.552 95.4828,85.552 95,86.5C 89.1976,65.7089 84.0309,44.7089 79.5,23.5 Z"/></g>
<g><path style="opacity:0.28" fill="#0f6dfe" d="M 109.5,23.5 C 104.691,43.5619 100.024,63.5619 95.5,83.5C 95.4955,79.4659 95.1621,75.4659 94.5,71.5C 98.4001,55.7339 102.4,39.9006 106.5,24C 107.448,23.5172 108.448,23.3505 109.5,23.5 Z"/></g>
<g><path style="opacity:0.567" fill="#f911fe" d="M 131.5,23.5 C 132.833,23.5 134.167,23.5 135.5,23.5C 139.056,40.0548 143.056,56.3881 147.5,72.5C 147.942,76.1545 148.276,79.8212 148.5,83.5C 148.719,84.675 148.386,85.675 147.5,86.5C 142.01,65.5403 136.677,44.5403 131.5,23.5 Z"/></g>
<g><path style="opacity:0.279" fill="#046eff" d="M 162.5,23.5 C 157.436,43.5026 152.769,63.5026 148.5,83.5C 148.276,79.8212 147.942,76.1545 147.5,72.5C 151.323,56.2062 154.99,39.8729 158.5,23.5C 159.833,23.5 161.167,23.5 162.5,23.5 Z"/></g>
<g><path style="opacity:0.566" fill="#f51efe" d="M 183.5,23.5 C 184.833,23.5 186.167,23.5 187.5,23.5C 179.319,58.8925 170.819,94.2259 162,129.5C 160.644,130.38 159.144,130.714 157.5,130.5C 166.983,95.0478 175.649,59.3811 183.5,23.5 Z"/></g>
<g><path style="opacity:0.389" fill="#f3afff" d="M 39.5,4.5 C 31.0991,11.1987 27.9324,19.8653 30,30.5C 32.6563,37.8016 34.4897,45.3016 35.5,53C 36.1285,59.1946 33.4619,63.028 27.5,64.5C 29.3548,62.9669 31.1881,61.3003 33,59.5C 33.923,57.9656 34.423,56.299 34.5,54.5C 33.1384,46.7201 31.305,39.0534 29,31.5C 27.6904,24.1286 28.6904,17.1286 32,10.5C 34.1057,7.88229 36.6057,5.88229 39.5,4.5 Z"/></g>
<g><path style="opacity:0.337" fill="#500cff" d="M 230.5,67.5 C 231.5,67.5 232.5,67.5 233.5,67.5C 233.666,71.8461 233.499,76.1794 233,80.5C 232.329,81.2524 231.496,81.5858 230.5,81.5C 230.5,81.1667 230.5,80.8333 230.5,80.5C 230.5,76.1667 230.5,71.8333 230.5,67.5 Z"/></g>
<g><path style="opacity:0.722" fill="#f7afff" d="M 14.5,67.5 C 14.5,72.1667 14.5,76.8333 14.5,81.5C 13.8826,81.3893 13.3826,81.056 13,80.5C 12.8333,78.3333 12.6667,76.1667 12.5,74C 12.5332,71.3897 13.1999,69.223 14.5,67.5 Z"/></g>
<g><path style="opacity:0.572" fill="#f31ffe" d="M 121.5,66.5 C 121.167,70.5 120.833,74.5 120.5,78.5C 116.385,94.9693 112.552,111.636 109,128.5C 107.951,130.107 106.451,130.773 104.5,130.5C 109.982,107.962 115.149,85.2951 120,62.5C 121.188,63.5634 121.688,64.8967 121.5,66.5 Z"/></g>
<g><path style="opacity:0.279" fill="#046eff" d="M 121.5,66.5 C 126.154,87.7916 131.154,109.125 136.5,130.5C 135.178,130.67 134.011,130.337 133,129.5C 128.981,112.424 124.814,95.4238 120.5,78.5C 120.833,74.5 121.167,70.5 121.5,66.5 Z"/></g>
<g><path style="opacity:0.914" fill="#d2aeff" d="M 203.5,71.5 C 207.154,71.9422 210.821,72.2756 214.5,72.5C 214.715,74.1788 214.048,75.1788 212.5,75.5C 209.813,73.6767 206.813,72.3434 203.5,71.5 Z"/></g>
<g><path style="opacity:0.594" fill="#5d38ff" d="M 37.5,72.5 C 35.4687,72.9724 33.8021,73.9724 32.5,75.5C 30.9519,75.1788 30.2852,74.1788 30.5,72.5C 32.8333,72.5 35.1667,72.5 37.5,72.5 Z"/></g>
<g><path style="opacity:0.479" fill="#5016ff" d="M 36.5,75.5 C 50.2947,77.1372 55.7947,84.8039 53,98.5C 50.7509,105.911 48.9176,113.411 47.5,121C 47.5858,126.242 49.9191,130.076 54.5,132.5C 50.4384,132.276 47.605,130.276 46,126.5C 44.6484,117.736 45.9818,109.403 50,101.5C 54.1657,88.1607 49.6657,79.494 36.5,75.5 Z"/></g>
<g><path style="opacity:0.481" fill="#f6afff" d="M 204.5,76.5 C 196.304,80.2235 192.804,86.5568 194,95.5C 196.324,103.797 198.491,112.13 200.5,120.5C 200.1,123.699 199.1,126.699 197.5,129.5C 195.754,131.854 193.421,132.854 190.5,132.5C 195.212,130.263 197.545,126.43 197.5,121C 196.218,113.039 194.385,105.206 192,97.5C 189.548,86.3858 193.715,79.3858 204.5,76.5 Z"/></g>
<g><path style="opacity:0.49" fill="#511aff" d="M 230.5,80.5 C 230.5,80.8333 230.5,81.1667 230.5,81.5C 223.838,81.2202 218.005,83.2202 213,87.5C 212.077,89.0344 211.577,90.701 211.5,92.5C 213.019,100.575 214.852,108.575 217,116.5C 219.796,129.484 215.629,139.317 204.5,146C 202.26,146.977 199.927,147.477 197.5,147.5C 211.27,142.311 217.103,132.311 215,117.5C 213.333,110.833 211.667,104.167 210,97.5C 208.807,92.8481 209.64,88.6814 212.5,85C 218.074,81.7522 224.074,80.2522 230.5,80.5 Z"/></g>
<g><path style="opacity:0.437" fill="#f9afff" d="M 30.5,84.5 C 34.3039,85.9247 35.9706,88.758 35.5,93C 34.3778,101.323 32.5444,109.489 30,117.5C 28.581,127.071 31.081,135.405 37.5,142.5C 32.7129,139.629 29.8795,135.296 29,129.5C 28.3333,125.167 28.3333,120.833 29,116.5C 31.0719,108.713 32.9053,100.879 34.5,93C 34.3646,89.5642 33.0313,86.7309 30.5,84.5 Z"/></g>
<g><path style="opacity:0.476" fill="#5012ff" d="M 64.5,131.5 C 65.9311,131.881 66.7645,132.881 67,134.5C 67.3367,137.861 67.8367,141.194 68.5,144.5C 67.3227,146.975 65.3227,147.975 62.5,147.5C 63.209,146.596 64.209,146.263 65.5,146.5C 65.5874,141.463 65.254,136.463 64.5,131.5 Z"/></g>
<g><path style="opacity:0.491" fill="#fdafff" d="M 180.5,131.5 C 179.947,136.482 179.613,141.482 179.5,146.5C 178.325,146.719 177.325,146.386 176.5,145.5C 177.239,141.527 177.905,137.527 178.5,133.5C 178.747,132.287 179.414,131.62 180.5,131.5 Z"/></g>
</svg>
