<svg width="100" height="100" viewBox="0 0 100 100" fill="none" xmlns="http://www.w3.org/2000/svg">
<rect x="18.25" y="29.25" width="63.5" height="41.5" rx="4.75" stroke="#441B98" stroke-width="2.5"/>
<path d="M24.25 65.5H28C28.3315 65.5 28.6495 65.3683 28.8839 65.1339C29.1183 64.8995 29.25 64.5815 29.25 64.25C29.25 63.9185 29.1183 63.6005 28.8839 63.3661C28.6495 63.1317 28.3315 63 28 63H24.25C23.9185 63 23.6005 63.1317 23.3661 63.3661C23.1317 63.6005 23 63.9185 23 64.25C23 64.5815 23.1317 64.8995 23.3661 65.1339C23.6005 65.3683 23.9185 65.5 24.25 65.5Z" fill="#441B98"/>
<path d="M63.25 65.5H67C67.3315 65.5 67.6495 65.3683 67.8839 65.1339C68.1183 64.8995 68.25 64.5815 68.25 64.25C68.25 63.9185 68.1183 63.6005 67.8839 63.3661C67.6495 63.1317 67.3315 63 67 63H63.25C62.9185 63 62.6005 63.1317 62.3661 63.3661C62.1317 63.6005 62 63.9185 62 64.25C62 64.5815 62.1317 64.8995 62.3661 65.1339C62.6005 65.3683 62.9185 65.5 63.25 65.5Z" fill="#441B98"/>
<path d="M71.25 65.5H75C75.3315 65.5 75.6495 65.3683 75.8839 65.1339C76.1183 64.8995 76.25 64.5815 76.25 64.25C76.25 63.9185 76.1183 63.6005 75.8839 63.3661C75.6495 63.1317 75.3315 63 75 63H71.25C70.9185 63 70.6005 63.1317 70.3661 63.3661C70.1317 63.6005 70 63.9185 70 64.25C70 64.5815 70.1317 64.8995 70.3661 65.1339C70.6005 65.3683 70.9185 65.5 71.25 65.5Z" fill="#441B98"/>
<rect x="19.25" y="39.25" width="61.5" height="6.5" fill="#29D6D6" stroke="#441B98" stroke-width="2.5"/>
</svg>
