<svg width="100" height="100" viewBox="0 0 100 100" fill="none" xmlns="http://www.w3.org/2000/svg">
<path d="M61.2908 59.3334V71H31.9359C31.9359 72.5471 31.3412 74.0309 30.2825 75.1248C29.2238 76.2188 27.788 76.8334 26.2908 76.8334C24.7936 76.8334 23.3577 76.2188 22.299 75.1248C21.2404 74.0309 20.6456 72.5471 20.6456 71H16.1295V59.3334H61.2908ZM26.2908 73.3334C26.7374 73.3334 27.1739 73.1965 27.5453 72.9401C27.9166 72.6837 28.206 72.3193 28.377 71.893C28.5479 71.4666 28.5926 70.9974 28.5054 70.5448C28.4183 70.0922 28.2033 69.6764 27.8875 69.3501C27.5717 69.0238 27.1693 68.8016 26.7313 68.7115C26.2933 68.6215 25.8393 68.6677 25.4267 68.8443C25.014 69.0209 24.6614 69.32 24.4133 69.7037C24.1651 70.0874 24.0327 70.5385 24.0327 71C24.0327 71.6189 24.2706 72.2124 24.6941 72.65C25.1175 73.0875 25.6919 73.3334 26.2908 73.3334Z" fill="#29D6D6"/>
<path d="M72.5812 65.1666C73.6977 65.1666 74.7891 65.5087 75.7174 66.1497C76.6458 66.7907 77.3693 67.7017 77.7966 68.7676C78.2239 69.8335 78.3357 71.0064 78.1178 72.138C77.9 73.2695 77.3624 74.3089 76.5729 75.1248C75.7834 75.9406 74.7775 76.4961 73.6825 76.7212C72.5874 76.9463 71.4524 76.8308 70.4208 76.3893C69.3893 75.9478 68.5077 75.2001 67.8874 74.2408C67.2671 73.2815 66.936 72.1537 66.936 71C66.936 69.4529 67.5308 67.9691 68.5894 66.8752C69.6481 65.7812 71.084 65.1666 72.5812 65.1666ZM72.5812 73.3333C73.0278 73.3333 73.4643 73.1965 73.8357 72.9401C74.207 72.6837 74.4964 72.3193 74.6673 71.8929C74.8382 71.4665 74.883 70.9974 74.7958 70.5448C74.7087 70.0921 74.4936 69.6764 74.1778 69.35C73.8621 69.0237 73.4597 68.8015 73.0217 68.7115C72.5837 68.6214 72.1296 68.6676 71.717 68.8442C71.3044 69.0208 70.9518 69.3199 70.7036 69.7036C70.4555 70.0873 70.3231 70.5385 70.3231 71C70.3231 71.6188 70.561 72.2123 70.9845 72.6499C71.4079 73.0875 71.9823 73.3333 72.5812 73.3333Z" fill="#29D6D6"/>
<path d="M83.8713 54.6666H65.8068V44.1666H77.0971L83.8713 54.6666Z" fill="#29D6D6"/>
<path d="M80.4842 59.3333H83.8713V64H80.4842C79.8854 64 79.311 63.7541 78.8875 63.3166C78.4641 62.879 78.2262 62.2855 78.2262 61.6666C78.2262 61.0478 78.4641 60.4543 78.8875 60.0167C79.311 59.5791 79.8854 59.3333 80.4842 59.3333Z" fill="#29D6D6"/>
<path d="M72.5812 67.5C73.2511 67.5 73.9059 67.7053 74.4629 68.0899C75.0199 68.4744 75.4541 69.0211 75.7104 69.6606C75.9668 70.3002 76.0339 71.0039 75.9032 71.6828C75.7725 72.3618 75.4499 72.9854 74.9762 73.4749C74.5025 73.9644 73.899 74.2977 73.242 74.4328C72.5849 74.5678 71.9039 74.4985 71.285 74.2336C70.6661 73.9687 70.1371 73.5201 69.7649 72.9445C69.3927 72.3689 69.1941 71.6922 69.1941 71C69.1951 70.0721 69.5523 69.1824 70.1872 68.5263C70.8222 67.8701 71.6832 67.501 72.5812 67.5ZM72.5812 72.1667C72.8045 72.1667 73.0228 72.0982 73.2084 71.9701C73.3941 71.8419 73.5388 71.6596 73.6243 71.4465C73.7097 71.2333 73.7321 70.9987 73.6885 70.7724C73.6449 70.5461 73.5374 70.3382 73.3795 70.175C73.2216 70.0119 73.0204 69.9008 72.8014 69.8558C72.5824 69.8107 72.3554 69.8338 72.1491 69.9221C71.9428 70.0104 71.7665 70.16 71.6424 70.3518C71.5183 70.5437 71.4521 70.7693 71.4521 71C71.4525 71.3093 71.5715 71.6059 71.7832 71.8246C71.9949 72.0433 72.2818 72.1663 72.5812 72.1667Z" fill="#441B98"/>
<path d="M26.2906 67.5C26.9605 67.5 27.6154 67.7053 28.1724 68.0899C28.7294 68.4744 29.1635 69.0211 29.4199 69.6606C29.6763 70.3002 29.7433 71.0039 29.6127 71.6828C29.482 72.3618 29.1594 72.9854 28.6857 73.4749C28.212 73.9644 27.6085 74.2977 26.9514 74.4328C26.2944 74.5678 25.6134 74.4985 24.9944 74.2336C24.3755 73.9687 23.8465 73.5201 23.4744 72.9445C23.1022 72.3689 22.9035 71.6922 22.9035 71C22.9045 70.0721 23.2617 69.1824 23.8967 68.5263C24.5317 67.8701 25.3926 67.501 26.2906 67.5ZM26.2906 72.1667C26.5139 72.1667 26.7322 72.0982 26.9179 71.9701C27.1036 71.8419 27.2483 71.6596 27.3337 71.4465C27.4192 71.2333 27.4415 70.9987 27.398 70.7724C27.3544 70.5461 27.2469 70.3382 27.089 70.175C26.9311 70.0119 26.7299 69.9008 26.5109 69.8558C26.2919 69.8107 26.0649 69.8338 25.8586 69.9221C25.6523 70.0104 25.4759 70.16 25.3519 70.3518C25.2278 70.5437 25.1616 70.7693 25.1616 71C25.1619 71.3093 25.281 71.6059 25.4927 71.8246C25.7043 72.0433 25.9913 72.1663 26.2906 72.1667Z" fill="#441B98"/>
<path d="M69.194 59.3333H65.8069C65.5074 59.3333 65.2203 59.2104 65.0085 58.9916C64.7968 58.7728 64.6778 58.4761 64.6778 58.1667C64.6778 57.8572 64.7968 57.5605 65.0085 57.3417C65.2203 57.1229 65.5074 57 65.8069 57H69.194C69.4934 57 69.7806 57.1229 69.9923 57.3417C70.204 57.5605 70.323 57.8572 70.323 58.1667C70.323 58.4761 70.204 58.7728 69.9923 58.9916C69.7806 59.2104 69.4934 59.3333 69.194 59.3333Z" fill="#441B98"/>
<path d="M18.9516 22H58.4677C59.5154 22.0012 60.5199 22.4318 61.2607 23.1973C62.0015 23.9628 62.4182 25.0007 62.4194 26.0833V39.5H74.8387C75.0246 39.5003 75.2075 39.5478 75.3714 39.6383C75.5353 39.7289 75.6751 39.8596 75.7786 40.0192L84.8109 54.0192C84.9339 54.2112 84.9997 54.4364 85 54.6667V71C85 71.3094 84.881 71.6062 84.6693 71.825C84.4576 72.0437 84.1704 72.1667 83.871 72.1667H79.2589C78.9923 73.7976 78.1753 75.2784 76.9529 76.3462C75.7304 77.414 74.1814 77.9998 72.5806 77.9998C70.9799 77.9998 69.4309 77.414 68.2084 76.3462C66.9859 75.2784 66.169 73.7976 65.9024 72.1667H32.9686C32.702 73.7976 31.885 75.2784 30.6625 76.3462C29.44 77.414 27.891 77.9998 26.2903 77.9998C24.6896 77.9998 23.1406 77.414 21.9181 76.3462C20.6956 75.2784 19.8786 73.7976 19.6121 72.1667H16.129C15.8296 72.1667 15.5424 72.0437 15.3307 71.825C15.119 71.6062 15 71.3094 15 71V26.0833C15.0012 25.0007 15.4179 23.9628 16.1587 23.1973C16.8995 22.4318 17.9039 22.0012 18.9516 22ZM76.4927 45.3333H66.9355V53.5H81.7611L76.4927 45.3333ZM82.7419 60.5H80.4839C80.1844 60.5 79.8973 60.6229 79.6855 60.8417C79.4738 61.0605 79.3548 61.3572 79.3548 61.6667C79.3548 61.9761 79.4738 62.2728 79.6855 62.4916C79.8973 62.7104 80.1844 62.8333 80.4839 62.8333H82.7419V60.5ZM72.5806 75.6667C73.4739 75.6667 74.347 75.393 75.0897 74.8802C75.8323 74.3674 76.4112 73.6386 76.753 72.7859C77.0948 71.9331 77.1843 70.9948 77.01 70.0896C76.8357 69.1843 76.4056 68.3528 75.774 67.7002C75.1424 67.0475 74.3377 66.6031 73.4617 66.423C72.5857 66.2429 71.6776 66.3354 70.8524 66.6886C70.0272 67.0418 69.3219 67.6399 68.8256 68.4073C68.3294 69.1748 68.0645 70.077 68.0645 71C68.0659 72.2372 68.5421 73.4234 69.3887 74.2983C70.2354 75.1732 71.3833 75.6653 72.5806 75.6667ZM62.4194 69.8333H65.9024C66.169 68.2023 66.9859 66.7216 68.2084 65.6538C69.4309 64.586 70.9799 64.0002 72.5806 64.0002C74.1814 64.0002 75.7304 64.586 76.9529 65.6538C78.1753 66.7216 78.9923 68.2023 79.2589 69.8333H82.7419V65.1667H80.4839C79.5856 65.1667 78.724 64.7979 78.0888 64.1415C77.4536 63.4852 77.0968 62.5949 77.0968 61.6667C77.0968 60.7384 77.4536 59.8482 78.0888 59.1918C78.724 58.5354 79.5856 58.1667 80.4839 58.1667H82.7419V55.8333H65.8065C65.507 55.8333 65.2198 55.7104 65.0081 55.4916C64.7964 55.2728 64.6774 54.9761 64.6774 54.6667V44.1667C64.6774 43.8572 64.7964 43.5605 65.0081 43.3417C65.2198 43.1229 65.507 43 65.8065 43H74.9869L74.2347 41.8333H62.4194V69.8333ZM26.2903 75.6667C27.1835 75.6667 28.0567 75.393 28.7994 74.8802C29.542 74.3674 30.1209 73.6386 30.4627 72.7859C30.8045 71.9331 30.8939 70.9948 30.7197 70.0896C30.5454 69.1843 30.1153 68.3528 29.4837 67.7002C28.8521 67.0475 28.0474 66.6031 27.1714 66.423C26.2953 66.2429 25.3873 66.3354 24.5621 66.6886C23.7369 67.0418 23.0315 67.6399 22.5353 68.4073C22.0391 69.1748 21.7742 70.077 21.7742 71C21.7755 72.2372 22.2518 73.4234 23.0984 74.2983C23.9451 75.1732 25.093 75.6653 26.2903 75.6667ZM17.2581 69.8333H19.6121C19.8786 68.2023 20.6956 66.7216 21.9181 65.6538C23.1406 64.586 24.6896 64.0002 26.2903 64.0002C27.891 64.0002 29.44 64.586 30.6625 65.6538C31.885 66.7216 32.702 68.2023 32.9686 69.8333H60.1613V60.5H17.2581V69.8333ZM17.2581 58.1667H60.1613V26.0833C60.1609 25.6193 59.9824 25.1744 59.6649 24.8463C59.3473 24.5182 58.9168 24.3337 58.4677 24.3333H18.9516C18.5026 24.3337 18.072 24.5182 17.7545 24.8463C17.437 25.1744 17.2584 25.6193 17.2581 26.0833V58.1667Z" fill="#441B98"/>
<rect x="32.2942" y="43.3824" width="3.55556" height="3.61313" fill="#441B98"/>
<rect x="32.2942" y="35.6635" width="3.55556" height="3.61313" fill="#441B98"/>
<path d="M37.7083 48.8021C39.6586 48.8021 41.529 48.0148 42.908 46.6134C44.2871 45.212 45.0618 43.3113 45.0618 41.3295C45.0618 39.3476 44.2871 37.4469 42.908 36.0455C41.529 34.6442 39.6586 33.8569 37.7083 33.8569L37.7083 37.5096C38.7052 37.5096 39.6613 37.912 40.3663 38.6284C41.0713 39.3448 41.4673 40.3164 41.4673 41.3295C41.4673 42.3426 41.0713 43.3142 40.3663 44.0305C39.6613 44.7469 38.7052 45.1494 37.7083 45.1494L37.7083 48.8021Z" fill="#441B98"/>
</svg>
